<svg xmlns="http://www.w3.org/2000/svg" width="53" height="52" viewBox="0 0 53 52">
    <g fill="none" fill-rule="evenodd">
        <path fill="#119C03" d="M.52 27.233c0 13.65 11.065 24.715 24.715 24.715 13.648 0 24.713-11.065 24.713-24.715S38.883 2.521 25.235 2.521C11.585 2.52.521 13.583.521 27.233z"/>
        <path stroke="#FFF" stroke-width="2" d="M21.032 16.453l10.78 10.781-10.78 10.782"/>
        <g stroke-width="2">
            <path stroke="#313131" d="M2.52 26.233c0 13.65 11.065 24.715 24.715 24.715 13.648 0 24.713-11.065 24.713-24.715S40.883 1.521 27.235 1.521c-13.65 0-24.714 11.062-24.714 24.712z"/>
            <path stroke="#373737" d="M23.032 15.453l10.78 10.781-10.78 10.782"/>
        </g>
    </g>
</svg>
